PathFileType	4	(X/Y/Z)	/Users/mathieubourgeois/Desktop/Analyse/Traitement/Sujet_03/Data/Transformed_Sujet_03_velo_100.trc
DataRate	CameraRate	NumFrames	NumMarkers	Units	OrigDataRate	OrigDataStartFrame	OrigNumFrames
120.000000	120.000000	4	36	mm	120.000000	1181	1890
Frame#	Time	RFHD			LFHD			RBHD			LBHD			C7			CLAV			RSHO			LSHO			STRN			T10			RBWT			LBWT			RFWT			LFWT			RKNI			LKNI			RKNE			LKNE			LANI			RANI			LANE			RANE			LTOE			RTOE			LHEE			RHEE			RHUM			LHUM			RRAD			LRAD			RWRA			RWRB			LWRA			LWRB			LCAR			RCAR			
		X1	Y1	Z1	X2	Y2	Z2	X3	Y3	Z3	X4	Y4	Z4	X5	Y5	Z5	X6	Y6	Z6	X7	Y7	Z7	X8	Y8	Z8	X9	Y9	Z9	X10	Y10	Z10	X11	Y11	Z11	X12	Y12	Z12	X13	Y13	Z13	X14	Y14	Z14	X15	Y15	Z15	X16	Y16	Z16	X17	Y17	Z17	X18	Y18	Z18	X19	Y19	Z19	X20	Y20	Z20	X21	Y21	Z21	X22	Y22	Z22	X23	Y23	Z23	X24	Y24	Z24	X25	Y25	Z25	X26	Y26	Z26	X27	Y27	Z27	X28	Y28	Z28	X29	Y29	Z29	X30	Y30	Z30	X31	Y31	Z31	X32	Y32	Z32	X33	Y33	Z33	X34	Y34	Z34	X35	Y35	Z35	X36	Y36	Z36	

1182	9.841666666666667	144.0461578369141	1559.198852539062	95.62181091308585	132.3769989013672	1550.26904296875	-57.83832550048836	35.92814254760741	1634.774536132812	102.7178878784179	15.00770854949952	1642.458618164062	-45.16728210449229	-111.1575698852539	1550.849975585938	30.68908882141102	-73.92197418212891	1394.484985351562	29.71286773681631	-53.32165145874026	1490.45849609375	199.5412597656249	-76.98659515380858	1509.63330078125	-151.4014739990235	-176.9667358398438	1258.312622070312	32.10087203979482	-326.9775390625	1449.824462890625	31.42228698730456	-525.725830078125	1268.144287109375	116.8096542358397	-534.5902709960938	1263.361694335938	-7.317285060882711	-374.4284362792969	1192.35498046875	174.5917968749999	-387.4924926757812	1175.341674804688	-70.08033752441418	-105.7772369384766	767.06787109375	129.7173767089843	-110.5365753173828	787.9703369140625	-54.06456756591803	-121.3121337890625	815.3492431640625	243.0645294189452	-107.7634582519531	832.3033447265625	-163.7894287109376	-404.0123596191406	554.1644897460938	-54.13822174072274	-147.3455505371094	395.4772644042969	134.0329589843749	-428.1095275878906	539.0154418945312	-142.1566162109376	-169.372787475586	373.5642700195312	221.1420288085937	-305.8963317871094	382.2583923339844	-93.50126647949226	13.82513141632078	278.339111328125	144.9433898925781	-500.2781372070312	561.0603637695312	-102.2189483642579	-241.7901153564453	352.4115600585938	181.7520751953124	7.750515937805147	1190.356323242188	230.9872741699218	4.798778533935565	1198.018432617188	-144.0747070312501	59.9372406005859	1213.837768554688	288.9498596191406	49.86751174926761	1227.099243164062	-210.1512451171876	266.2958068847656	1043.870361328125	212.2614288330078	246.3831634521484	1030.001220703125	291.6945190429688	243.962387084961	1065.164794921875	-128.5416564941407	216.4681549072266	1039.380126953125	-200.9645385742188	311.7820739746094	1027.349853515625	-226.3860321044922	348.9051818847656	1020.029479980469	302.8757019042969	
1183	9.85	143.5570068359375	1559.34912109375	94.46499633789054	132.0397186279297	1550.268432617188	-59.04121780395516	35.45090103149413	1634.878295898438	101.4142761230468	14.61821842193604	1642.428833007812	-46.51762008667002	-111.5686264038086	1550.818115234375	29.42640686035145	-74.12511444091797	1394.451416015625	28.38751983642569	-53.3375930786133	1490.509155273438	198.2711029052734	-77.66434478759764	1509.469482421875	-152.7022094726563	-177.0852508544922	1258.130737304688	30.77237892150869	-327.3101806640625	1449.564819335938	31.30282974243151	-525.4650268554688	1267.564575195312	117.5594024658202	-534.8588256835938	1263.248657226562	-6.658083915710592	-373.8453063964844	1190.832275390625	175.4272155761717	-387.82666015625	1175.6279296875	-70.18666839599621	-115.1245422363281	754.6680908203125	129.0957794189453	-101.256233215332	800.68017578125	-55.49644088745124	-130.17138671875	803.6767578125	242.4680938720702	-100.235221862793	843.8982543945312	-164.309310913086	-397.8597106933594	569.0961303710938	-54.96939086914071	-152.0614929199219	382.802490234375	133.0063934326171	-421.9446411132812	553.48193359375	-142.8252258300782	-174.6551055908203	361.2454528808594	220.2453918457031	-299.1740112304688	398.5562744140625	-93.03075408935554	7.865392684936506	262.1076354980469	144.6266174316406	-494.4185180664062	575.5671997070312	-103.1926727294923	-246.5498962402344	341.139892578125	180.5658721923828	7.614136695861788	1190.311401367188	230.5245208740234	4.540123939514178	1197.9384765625	-144.2274780273438	59.71637344360348	1213.92236328125	288.5602111816406	49.44512176513675	1226.852416992188	-210.4963378906251	266.1838989257812	1043.90673828125	212.2543029785156	246.2115325927734	1030.037719726562	291.6760559082031	243.7556457519532	1065.26708984375	-128.6400604248047	216.2632446289063	1039.360473632812	-200.9754638671875	311.5720825195312	1027.410278320312	-226.4431762695313	348.7801818847656	1020.069091796875	302.9005737304688	
1184	9.858333333333333	143.2101898193359	1559.524780273438	93.22412109374991	131.7643585205078	1550.317993164062	-60.23729324340828	35.06636810302733	1635.041259765625	100.0661239624022	14.30116558074952	1642.483764648438	-47.86824035644541	-111.8726119995117	1550.866821289062	28.17442893981923	-74.26895904541016	1394.540771484375	27.01127052307119	-53.28912353515627	1490.556518554688	196.9960937499999	-78.19785308837889	1509.321899414062	-154.0387115478516	-176.9786071777344	1257.985961914062	29.43262672424306	-327.5300598144531	1449.3955078125	31.17748832702624	-525.1318359375	1267.04052734375	118.2005615234374	-534.9781494140625	1263.230224609375	-6.067939758300924	-373.3642883300781	1189.610961914062	175.3675231933592	-388.0841369628906	1175.96484375	-70.26131439208996	-124.485336303711	743.1996459960938	128.3568878173827	-91.73647308349609	813.5762329101562	-55.74161911010749	-139.185546875	792.7484130859375	241.8934936523437	-93.11254119873045	855.5740356445312	-164.8214874267579	-390.29296875	582.8699340820312	-57.13520050048837	-157.8223571777344	371.0306396484375	131.9882354736328	-415.3030090332031	567.3653564453125	-143.5955200195313	-181.1139221191407	350.1736145019531	219.4203491210937	-291.7638854980469	414.1537780761719	-92.4497375488282	0.6004159450530829	246.5905456542969	144.3704833984375	-488.0167846679688	588.7877807617188	-104.1246261596681	-252.0037384033203	330.6544799804688	178.383071899414	7.500158309936495	1190.317504882812	230.1445007324218	4.319817543029803	1197.857299804688	-144.4717712402345	59.60807800292965	1214.012817382812	288.1702575683593	49.156608581543	1226.592163085938	-210.9091949462891	266.0833435058594	1043.9169921875	212.2086944580078	246.1105804443359	1030.096557617188	291.6083984375	243.592041015625	1065.342529296875	-128.7627716064453	216.1470031738282	1039.32666015625	-201.0260009765625	311.4013061523438	1027.437866210938	-226.5361328125	348.6741333007812	1020.10400390625	302.879150390625	
1185	9.866666666666667	142.9162750244141	1559.761962890625	92.06109619140616	131.5414733886719	1550.451171875	-61.46042251586922	34.72983551025389	1635.219848632812	98.78080749511709	14.05511569976807	1642.601196289062	-49.2000617980958	-112.0510635375977	1550.917602539062	26.94285964965809	-74.29995727539062	1394.659423828125	25.61408615112295	-53.14593887329104	1490.606323242188	195.7369537353515	-78.61975860595702	1509.13623046875	-155.3918457031251	-176.8643188476562	1257.918823242188	28.10518264770498	-327.6283264160156	1449.300170898438	31.0323562622069	-524.796875	1266.6015625	118.8142089843749	-535.0249633789062	1263.326171875	-5.541481494903707	-372.9053344726562	1188.6787109375	175.2344818115233	-388.207763671875	1176.346313476562	-70.41751861572277	-133.8685760498047	732.7800903320312	127.5753555297851	-84.69387817382812	825.3230590820312	-55.90980148315435	-148.1810607910157	782.7169189453125	241.3061218261718	-85.92110443115233	866.618896484375	-165.1707458496094	-383.1529846191406	595.8319091796875	-57.54491424560555	-164.5388336181641	360.3230895996094	131.0208740234374	-407.8659973144531	579.78857421875	-144.1987457275391	-188.4085998535157	339.7624816894531	218.4493560791015	-282.3670959472656	428.9081726074219	-92.18279266357428	-8.006207466125506	231.7924041748047	144.2117309570312	-481.0148620605469	600.5569458007812	-105.0623855590821	-258.9564819335938	321.3389587402344	177.1231384277343	7.424835681915255	1190.320068359375	229.8836212158202	4.223490238189715	1197.842529296875	-144.6646881103516	59.56794357299801	1214.117309570312	287.8151245117187	48.95834732055667	1226.399291992188	-211.316879272461	266.0153198242188	1043.939819335938	212.1013946533203	246.0449981689453	1030.179443359375	291.5089416503906	243.4895477294922	1065.381225585938	-128.9122314453125	216.0747985839844	1039.284912109375	-201.1219787597657	311.2933959960938	1027.433715820312	-226.6533813476563	348.6188964843749	1020.183654785156	302.7866821289062	
